<?xml version="1.0" encoding="utf-8"?>
<!-- Generator: Adobe Illustrator 20.0.0, SVG Export Plug-In . SVG Version: 6.00 Build 0)  -->
<svg version="1.0" id="Layer_1" xmlns="http://www.w3.org/2000/svg" xmlns:xlink="http://www.w3.org/1999/xlink" x="0px" y="0px"
	 viewBox="0 0 590 46.1" style="enable-background:new 0 0 590 46.1;" xml:space="preserve">
<g>
	<path d="M310.8,17.2h-17.3V0.5h-9.5v0.2c1.4,1,2.3,2.7,2.3,4.5v35.7c0,1.9-0.9,3.5-2.3,4.5v0.2h9.5V23.5h17.3v22.2h9.5v-0.2
		c-1.4-1-2.3-2.7-2.3-4.5V5.2c0-1.9,0.9-3.5,2.3-4.5V0.5h-9.5V17.2z"/>
	<path d="M465.8,17.2h-17.3V0.5h-9.5v0.2c1.4,1,2.3,2.7,2.3,4.5v35.7c0,1.9-0.9,3.5-2.3,4.5v0.2h9.5V23.5h17.3v22.2h9.5v-0.2
		c-1.4-1-2.3-2.7-2.3-4.5V5.2c0-1.9,0.9-3.5,2.3-4.5V0.5h-9.5V17.2z"/>
	<path d="M368.7,39.3c-0.1,0-15.6,0-15.6,0V23.5h13.5l1.8-8.6l-0.2,0c-1,1.4-2.7,2.3-4.5,2.3h-10.6v0V6.8l13.6,0
		c1.9,0,3.5,0.9,4.5,2.3l0.2,0l-3.4-8.6h-24.5v0.2c1.4,1,2.3,2.7,2.3,4.5v35.7c0,1.9-0.9,3.5-2.3,4.5v0.2l28,0l1.8-8.7l-0.2,0
		C372.2,38.4,370.6,39.3,368.7,39.3"/>
	<path d="M233.2,0.5l-3.4,8.6l0.2,0c1-1.4,2.7-2.3,4.5-2.3l9,0v34.1c0,1.9-0.9,3.5-2.3,4.5v0.2H253v-0.2c-1.4-1-2.3-2.7-2.3-4.5V6.8
		l9.2,0c1.9,0,3.5,0.9,4.5,2.3l0.2,0l-3.4-8.6H233.2z"/>
	<path d="M578.1,17.2h-8.2V6.8l8.2,0c2.9,0,5.2,2.3,5.2,5.2C583.3,14.8,581,17.2,578.1,17.2 M578.5,0.5c-0.7,0-18.1,0-18.1,0v0.2
		c1.4,1,2.3,2.7,2.3,4.5v35.7c0,1.9-0.9,3.5-2.3,4.5v0.2h11.8v-0.2c-1.4-1-2.3-2.7-2.3-4.5l0-17.4h8.6c6.3,0,11.5-5.1,11.5-11.5
		C590,5.6,584.9,0.5,578.5,0.5"/>
	<path d="M209.5,43.3c-0.3-0.3-1.1-1.5-1.6-2v-36c0-1.9,0.9-3.5,2.3-4.5V0.5h-9.5l0,31.5L176.6,0.5h-9.4l0,0.3
		c1.2,0.3,2.4,1.1,3.1,2.1c0.3,0.4,2.5,3.2,3.5,4.6v33.5c0,1.9-0.9,3.5-2.3,4.5v0.2h9.5l0-29l22.3,29h9.3l0-0.3
		C211.4,45,210.3,44.3,209.5,43.3"/>
	<path d="M16.6,39.3H9.4V23.5h7.1c4.4,0,7.9,3.5,7.9,7.9S20.9,39.3,16.6,39.3 M9.4,6.8h5.3c2.9,0,5.2,2.3,5.2,5.2
		c0,2.9-2.3,5.2-5.2,5.2H9.4V6.8z M23,19.7c2.3-2,3.7-4.9,3.7-8.2c0-6.1-4.9-11-11-11c-0.3,0-15.7,0-15.7,0v0.2
		c1.4,1,2.3,2.7,2.3,4.5v35.7c0,1.9-0.9,3.5-2.3,4.5v0.2c0,0,17.7,0,17.9,0c7.5,0,13.5-6,13.5-13.5C31.4,26.5,27.9,21.7,23,19.7"/>
	<path d="M130.8,39.9c-9.1,0-14.8-7.6-14.8-16.8s5.7-16.8,14.8-16.8s14.8,7.6,14.8,16.8S139.9,39.9,130.8,39.9 M130.8,0.3
		c-12.6,0-22.5,10.2-22.5,22.8s9.9,22.8,22.5,22.8c12.6,0,22.5-10.2,22.5-22.8S143.3,0.3,130.8,0.3"/>
	<path d="M516.4,39.9c-9.1,0-14.8-7.6-14.8-16.8s5.7-16.8,14.8-16.8c9.1,0,14.8,7.6,14.8,16.8S525.6,39.9,516.4,39.9 M516.4,0.3
		c-12.6,0-22.5,10.2-22.5,22.8s9.9,22.8,22.5,22.8c12.6,0,22.5-10.2,22.5-22.8S529,0.3,516.4,0.3"/>
	<path d="M69.2,39.9c-9.1,0-14.8-7.6-14.8-16.8S60.1,6.3,69.2,6.3S84,14,84,23.1S78.3,39.9,69.2,39.9 M69.2,0.3
		c-12.6,0-22.5,10.2-22.5,22.8s9.9,22.8,22.5,22.8c12.6,0,22.5-10.2,22.5-22.8S81.8,0.3,69.2,0.3"/>
	<path d="M408.5,18.7c-1.4-0.7-2.8-1.3-4.2-2c-1.9-1-3.5-2.7-3.6-4.9c-0.1-1.6,0.4-3.4,1.7-4.5c1.1-0.9,2.8-1.3,4.2-1.1
		c2.7,0.4,4.8,3.3,4.4,6.1l0.1,0.2l5.7-5.6c-1.3-2.5-4.5-6.2-10.2-6.8c-7.6-0.9-12.4,4.3-13.1,9.6c-0.8,7.1,3.6,11.1,9.2,14
		c2.8,1.5,6.1,2.6,8,5.2c1.1,1.4,1.5,3.3,1.3,5.1c-0.3,3.1-2.3,5-4.9,5.5c-0.9,0.2-1.9,0.3-2.8,0.2c-4.9-0.3-8.7-5.3-7.2-8.7
		l-0.1-0.2l-6.4,5.3c2.6,5.6,7.1,9.2,13.4,9.8c4.8,0.4,10.3-1.1,13.1-5.4c1.2-1.9,2-4,2.2-6.2c0.6-5.7-2.4-10.6-7-13.6
		C411,20,409.8,19.3,408.5,18.7"/>
</g>
</svg>
